<svg width="30" height="30" viewBox="0 0 30 30" fill="none" xmlns="http://www.w3.org/2000/svg">
<path d="M24.8335 17.7224C23.1804 17.7224 21.5573 17.4638 20.0193 16.9555C19.2656 16.6985 18.3391 16.9343 17.8791 17.4067L14.8432 19.6985C11.3225 17.8191 9.15375 15.6511 7.30003 12.1568L9.52436 9.20002C10.1023 8.62289 10.3095 7.77985 10.0612 6.98883C9.55073 5.44267 9.29142 3.82035 9.29142 2.1666C9.29149 0.971927 8.31956 0 7.12496 0H2.16653C0.971927 0 0 0.971927 0 2.16653C0 15.8599 11.1401 26.9999 24.8335 26.9999C26.0281 26.9999 27 26.028 27 24.8334V19.8888C26.9999 18.6943 26.028 17.7224 24.8335 17.7224Z" fill="#212133"/>
</svg>
