<svg width="28" height="28" viewBox="0 0 28 28" fill="none" xmlns="http://www.w3.org/2000/svg">
<path d="M27.7534 5.56287L19.2615 14L27.7534 22.4371C27.9069 22.1163 28 21.7616 28 21.3828V6.61719C28 6.23837 27.9069 5.88372 27.7534 5.56287Z" fill="#212133"/>
<path d="M25.5391 4.15625H2.46094C2.08212 4.15625 1.72747 4.24938 1.40662 4.40289L12.2601 15.2017C13.2197 16.1613 14.7803 16.1613 15.7399 15.2017L26.5934 4.40289C26.2725 4.24938 25.9179 4.15625 25.5391 4.15625Z" fill="#212133"/>
<path d="M0.246641 5.56287C0.0931328 5.88372 0 6.23837 0 6.61719V21.3828C0 21.7616 0.0931328 22.1163 0.246641 22.4371L8.73846 14L0.246641 5.56287Z" fill="#212133"/>
<path d="M18.1016 15.16L16.8999 16.3617C15.3009 17.9607 12.699 17.9607 11.1 16.3617L9.89843 15.16L1.40662 23.5972C1.72747 23.7507 2.08212 23.8438 2.46094 23.8438H25.5391C25.9179 23.8438 26.2725 23.7507 26.5934 23.5972L18.1016 15.16Z" fill="#212133"/>
</svg>
