<svg width="100" height="100" viewBox="0 0 100 100" fill="none" xmlns="http://www.w3.org/2000/svg">
<path d="M86.6539 23.5668H90.1484V17.6914H85.2539V12.7301H82.3918L82.3162 12.5379L82.2406 12.7301H79.3785V17.6914H58.3297C57.4547 15.1611 55.459 13.1504 52.9375 12.2561V5.87539H58.617V0H41.3824V5.87539H47.0619V12.2561C44.5621 13.1426 42.5783 15.1264 41.6918 17.6262H20.6215V12.7301H17.7594L17.6838 12.5379L17.6082 12.7301H14.7459V17.6262H9.45976V23.5016H13.3717L0.0560532 57.3564V57.9135C0.0560532 67.6334 7.96367 75.5412 17.6836 75.5412C27.4037 75.5412 35.3113 67.6336 35.3113 57.9135V57.3564L21.9957 23.5016H41.692C42.5785 26.0014 44.5623 27.9852 47.0621 28.8717V82.3736H22.3855V94.1244H16.3143V100H22.3855H77.6144H83.6857V94.1246H77.6144V82.3738H52.9377V28.8719C55.4158 27.993 57.3879 26.0363 58.2857 23.5672H77.9783L64.6885 57.3568V57.9139C64.6885 67.6338 72.5961 75.5416 82.3162 75.5416C92.0361 75.5416 99.9437 67.634 99.9437 57.9139V57.3568L86.6539 23.5668ZM28.0617 54.9758H7.30605L17.6836 28.59L28.0617 54.9758ZM71.9383 54.9758L82.3162 28.59L92.6939 54.9758H71.9383Z" fill="#C5A376"/>
</svg>
