<svg width="50" height="44" viewBox="0 0 50 44" fill="none" xmlns="http://www.w3.org/2000/svg">
<path d="M50 25.4797C50 18.6499 47.2461 12.452 42.7915 7.93545C42.7567 7.88922 42.7197 7.84398 42.6775 7.80184C42.6354 7.75971 42.5903 7.72266 42.5441 7.68807C38.0275 3.23348 31.8297 0.479713 25 0.479713C18.1703 0.479713 11.9725 3.23365 7.45574 7.68807C7.40951 7.72283 7.36443 7.75988 7.3223 7.80184C7.28016 7.84398 7.24311 7.88906 7.20836 7.93545C2.75393 12.452 0 18.6499 0 25.4797C0 32.1566 2.59984 38.4335 7.32049 43.1553C7.32115 43.1559 7.3218 43.1568 7.32246 43.1574C7.32295 43.1577 7.32328 43.1582 7.32377 43.1586C7.32443 43.1592 7.32508 43.1599 7.32574 43.1605C7.56574 43.4005 7.88033 43.5204 8.19492 43.5204C8.50967 43.5204 8.82443 43.4004 9.06443 43.1602C9.08492 43.1397 9.10344 43.1179 9.12213 43.0963L12.911 39.3073C13.3911 38.8269 13.3911 38.0486 12.911 37.5684C12.4308 37.0884 11.6523 37.0884 11.1723 37.5684L8.21557 40.5251C4.76787 36.6886 2.7677 31.86 2.49262 26.7092H6.6741C7.35312 26.7092 7.90361 26.1589 7.90361 25.4797C7.90361 24.8005 7.35312 24.2502 6.6741 24.2502H2.49295C2.77885 18.9597 4.89754 14.1489 8.22361 10.4422L11.1723 13.3909C11.4123 13.6309 11.727 13.7509 12.0416 13.7509C12.3562 13.7509 12.671 13.6309 12.911 13.3909C13.3911 12.9105 13.3911 12.1322 12.911 11.652L9.96246 8.70316C13.6693 5.37709 18.48 3.2584 23.7705 2.97266V7.15398C23.7705 7.83316 24.321 8.38348 25 8.38348C25.679 8.38348 26.2295 7.83316 26.2295 7.15398V2.97266C31.52 3.2584 36.3307 5.37725 40.0375 8.70332L37.0889 11.652C36.6087 12.1323 36.6087 12.9107 37.0889 13.3909C37.3289 13.6309 37.6436 13.7509 37.9582 13.7509C38.2728 13.7509 38.5875 13.6309 38.8275 13.3909L41.7762 10.4422C45.1023 14.1491 47.2211 18.9597 47.5069 24.2502H43.3256C42.6466 24.2502 42.0961 24.8005 42.0961 25.4797C42.0961 26.1589 42.6466 26.7092 43.3256 26.7092H47.507C47.232 31.86 45.232 36.6887 41.7843 40.5253L38.8275 37.5684C38.3475 37.0884 37.569 37.0884 37.0889 37.5684C36.6087 38.0487 36.6087 38.8271 37.0889 39.3073L40.9389 43.1573C41.1789 43.3973 41.4936 43.5173 41.8082 43.5173C41.9654 43.5173 42.1228 43.4873 42.2708 43.4273C42.4189 43.3673 42.5575 43.2773 42.6777 43.1573C47.3995 38.4353 50 32.1573 50 25.4797Z" fill="#C5A376"/>
<path d="M30.6485 11.38C30.0179 11.1274 29.3025 11.4336 29.05 12.0641L25.4971 20.9329C25.3315 20.9152 25.1659 20.9031 25.0002 20.9031C23.2697 20.9031 21.7066 21.8616 20.9205 23.4046C20.0989 25.0175 20.3093 26.9448 21.4831 28.5595C21.6031 28.7246 21.7539 28.8756 21.9202 28.9964C22.8738 29.6897 23.9389 30.0561 25.0002 30.0561C26.7307 30.0561 28.2939 29.0975 29.0798 27.5546C29.9015 25.9416 29.691 24.0146 28.518 22.401C28.398 22.2354 28.2469 22.0839 28.0802 21.9626C27.9905 21.8974 27.8989 21.8379 27.8072 21.7785L31.3326 12.9784C31.5851 12.3482 31.2789 11.6325 30.6485 11.38ZM26.8885 26.4384C26.5244 27.153 25.8008 27.5969 25 27.5969C24.4748 27.5969 23.9461 27.4134 23.428 27.0515C22.8379 26.2041 22.722 25.2854 23.1116 24.5207C23.4756 23.8061 24.1992 23.3621 25.0002 23.3621C25.2556 23.3621 25.5116 23.4064 25.7671 23.4925C25.7754 23.4959 25.7831 23.5003 25.7916 23.5038C25.8185 23.5144 25.8456 23.5231 25.8726 23.5318C26.1071 23.6218 26.3405 23.7457 26.572 23.9074C27.162 24.7548 27.278 25.6736 26.8885 26.4384Z" fill="#C5A376"/>
</svg>
