<svg width="50" height="50" viewBox="0 0 50 50" fill="none" xmlns="http://www.w3.org/2000/svg">
<g clip-path="url(#clip0_1_84)">
<path d="M42.3 15.6844L39.9524 12.8364C39.6301 12.4454 39.434 11.9724 39.3859 11.4685L39.0319 7.79454C38.8481 5.88567 37.3291 4.36667 35.4202 4.1828L31.7463 3.82918C31.2423 3.78073 30.7693 3.58466 30.3783 3.2627L27.5303 0.914764C26.0506 -0.304789 23.9025 -0.304789 22.4228 0.914764L19.5748 3.2627C19.1841 3.58466 18.7111 3.78073 18.2068 3.82918L14.5329 4.1828C12.624 4.36667 11.1054 5.88567 10.9212 7.79454L10.5675 11.4685C10.5191 11.9724 10.323 12.4454 10.0011 12.8364L7.65313 15.6844C6.43358 17.1642 6.43358 19.3122 7.65313 20.7919L10.0011 23.64C10.323 24.031 10.5191 24.504 10.5675 25.0079L10.9212 28.6818C11.105 30.5907 12.624 32.1093 14.5329 32.2936L16.7786 32.5099L11.443 45.2597C11.2984 45.6068 11.3637 45.9974 11.6135 46.2789C11.8634 46.5601 12.243 46.6715 12.6038 46.5689L17.2329 45.2619C17.2532 45.2562 17.2726 45.265 17.2818 45.2814L19.5999 49.4966C19.7724 49.8106 20.0947 49.9998 20.4495 49.9998C20.4663 49.9998 20.483 49.9994 20.5002 49.9986C20.8752 49.9796 21.1994 49.753 21.3478 49.4035L26.981 35.9415C27.1721 35.8317 27.356 35.7054 27.5307 35.5616L30.3787 33.214C30.7392 32.9165 31.1706 32.7284 31.6311 32.6628L36.7332 44.8542L33.1226 43.8349C32.436 43.6415 31.7169 43.9425 31.3724 44.5669L29.5647 47.854L27.1694 42.1301C27.0111 41.7521 26.577 41.5743 26.199 41.7322C25.8213 41.8902 25.6432 42.3246 25.8015 42.7023L28.6072 49.4074C28.754 49.753 29.0779 49.9796 29.4533 49.9986C29.4704 49.9994 29.4872 50.0002 29.504 50.0002C29.8588 50.0002 30.1811 49.8106 30.3535 49.4966L32.6713 45.2822C32.6809 45.265 32.7007 45.257 32.7202 45.2619L37.3485 46.5689C37.7101 46.6711 38.0901 46.5601 38.3396 46.2789C38.5894 45.9974 38.6547 45.6072 38.5097 45.2589L33.1745 32.5095L35.4202 32.2932C37.3291 32.1093 38.8481 30.5907 39.0319 28.6818L39.3859 25.0075C39.434 24.5036 39.6301 24.031 39.9524 23.64L42.3 20.7919C43.5199 19.3122 43.5199 17.1642 42.3 15.6844ZM20.3888 47.854L18.5807 44.5662C18.2366 43.9421 17.5167 43.6411 16.8305 43.8349L13.2203 44.8538L18.322 32.6628C18.7828 32.7284 19.2143 32.9165 19.5748 33.2137L22.4228 35.5616C23.1629 36.1716 24.0696 36.4764 24.9767 36.4764C25.0351 36.4764 25.0931 36.4748 25.1514 36.4722L20.3888 47.854ZM41.1559 19.8489L38.8084 22.697C38.2972 23.3165 37.9867 24.0664 37.9096 24.8656L37.556 28.5395C37.4401 29.7434 36.4822 30.7013 35.2783 30.8173L32.0511 31.1282C32.0385 31.1289 32.0255 31.1301 32.0129 31.132L31.6044 31.1713C30.8048 31.2483 30.0548 31.5589 29.4353 32.0696L26.5873 34.4172C25.6542 35.1866 24.2992 35.1866 23.3662 34.4172L20.5181 32.0696C19.8986 31.5589 19.1487 31.248 18.3491 31.1713L17.9387 31.1316C17.9272 31.1301 17.9161 31.1293 17.9047 31.1286L14.6752 30.8173C13.4713 30.7013 12.5134 29.7434 12.3974 28.5395L12.0438 24.866C11.9668 24.0664 11.6563 23.3165 11.1451 22.697L8.79753 19.8489C8.02811 18.9155 8.02811 17.5605 8.79753 16.6274L11.1451 13.7794C11.6563 13.1599 11.9668 12.4099 12.0438 11.6104L12.3974 7.93645C12.5134 6.73253 13.4713 5.77467 14.6752 5.6587L18.3491 5.30508C19.1487 5.22802 19.8986 4.91751 20.5181 4.40672L23.3662 2.05917C23.8327 1.67465 24.4049 1.48201 24.9767 1.48201C25.5486 1.48201 26.1208 1.67427 26.5873 2.05917L29.4353 4.40672C30.0548 4.91751 30.8048 5.2284 31.6044 5.30508L35.2783 5.6587C36.4822 5.77467 37.4401 6.73253 37.556 7.93645L37.9096 11.6104C37.9867 12.4099 38.2972 13.1599 38.8084 13.7794L41.1559 16.6274C41.925 17.5609 41.925 18.9155 41.1559 19.8489Z" fill="#C5A376"/>
<path d="M24.9767 6.65581C24.4816 6.65581 23.9834 6.68709 23.4951 6.74965C23.0892 6.80153 22.802 7.17308 22.8539 7.57896C22.9058 7.98522 23.2777 8.27209 23.6832 8.22059C24.1089 8.16604 24.5442 8.13857 24.9767 8.13857C30.5458 8.13857 35.0765 12.6693 35.0765 18.2383C35.0765 23.8074 30.5454 28.3377 24.9767 28.3377C19.4077 28.3377 14.877 23.807 14.877 18.2379C14.877 14.2657 17.2192 10.6475 20.8439 9.01976C21.2174 8.8523 21.3845 8.41323 21.2166 8.03977C21.0488 7.66593 20.6097 7.49923 20.2366 7.66708C16.0798 9.5336 13.3942 13.6828 13.3942 18.2379C13.3942 24.6248 18.5902 29.8204 24.9767 29.8204C31.3633 29.8204 36.5593 24.6248 36.5593 18.2379C36.5593 11.8514 31.3633 6.65581 24.9767 6.65581Z" fill="#C5A376"/>
<path d="M17.6132 17.3794C16.7294 18.2632 16.7294 19.7017 17.6132 20.5856L20.8515 23.8243C21.2799 24.2523 21.8491 24.488 22.4549 24.488C23.0603 24.488 23.6298 24.2523 24.0582 23.8243L31.1272 16.7549C32.0111 15.8706 32.0111 14.4325 31.1272 13.5483C30.2433 12.6644 28.8048 12.6644 27.9206 13.5483L22.4549 19.0143L20.8195 17.3794C19.9356 16.4955 18.4971 16.4955 17.6132 17.3794ZM22.4549 20.8046C22.6513 20.8046 22.8398 20.7264 22.979 20.5871L28.9692 14.5969C29.2752 14.291 29.7726 14.2914 30.0785 14.5969C30.3845 14.9029 30.3845 15.4007 30.0785 15.7062L23.0095 22.7756C22.8615 22.9236 22.6643 23.0053 22.4549 23.0053C22.2451 23.0053 22.0482 22.9236 21.9002 22.7756L18.6615 19.5373C18.356 19.2314 18.356 18.7336 18.6615 18.428C18.8145 18.275 19.0155 18.1984 19.2166 18.1984C19.4172 18.1984 19.6183 18.275 19.7708 18.4276L21.9303 20.5871C22.0696 20.7264 22.258 20.8046 22.4549 20.8046Z" fill="#C5A376"/>
</g>
<defs>
<clipPath id="clip0_1_84">
<rect width="50" height="50" fill="white"/>
</clipPath>
</defs>
</svg>
