<svg width="50" height="50" viewBox="0 0 50 50" fill="none" xmlns="http://www.w3.org/2000/svg">
<g clip-path="url(#clip0_1_78)">
<path d="M41.6551 27.728L34.1895 16.0246C35.2472 15.4687 35.9708 14.3594 35.9708 13.0837C35.9708 11.6875 35.1041 10.4905 33.8807 10.0006L36.1423 2.09344C36.2399 1.7523 36.1448 1.38519 35.894 1.1343C34.3895 -0.370093 31.9417 -0.370093 30.4372 1.1343C30.0773 1.49418 29.5989 1.69234 29.0899 1.69234C28.581 1.69234 28.1026 1.49418 27.7404 1.13195L27.7357 1.12717C26.2365 -0.372144 23.7929 -0.376343 22.2878 1.11828L22.2597 1.14621C21.5168 1.88385 20.3102 1.8817 19.57 1.14142L19.5629 1.1343C18.0584 -0.370093 15.6106 -0.370093 14.1061 1.1343C13.8551 1.38538 13.7601 1.75279 13.8579 2.09412L16.1244 9.9987C14.8984 10.4874 14.0293 11.6856 14.0293 13.0838C14.0293 14.3595 14.7527 15.4688 15.8106 16.0246L8.34483 27.728C5.45657 32.2556 5.27355 37.7702 7.85525 42.4794C10.4369 47.1885 15.1845 50 20.555 50H29.4448C34.8153 50 39.5628 47.1885 42.1446 42.4794C44.7263 37.7702 44.5434 32.2556 41.6551 27.728V27.728ZM18.1817 2.51543L18.1888 2.52256C19.6881 4.02177 22.1316 4.02588 23.6367 2.53145L23.6647 2.50352C24.4075 1.76588 25.6141 1.76802 26.3567 2.51055L26.3614 2.51534C27.8659 4.01972 30.3137 4.01972 31.8182 2.51534C32.4304 1.90319 33.3588 1.79547 34.0823 2.19217L31.917 9.76324H18.089L15.9179 2.19207C16.6414 1.79547 17.5696 1.90338 18.1817 2.51543V2.51543ZM40.4319 41.5405C38.1984 45.6145 34.0911 48.0469 29.4449 48.0469H20.5551C15.909 48.0469 11.8017 45.6146 9.56815 41.5405C7.33461 37.4664 7.49292 32.6956 9.99161 28.7784L17.8852 16.4043H20.6052C21.1446 16.4043 21.5819 15.967 21.5819 15.4276C21.5819 14.8883 21.1446 14.451 20.6052 14.451H17.3498C16.5958 14.451 15.9825 13.8377 15.9825 13.0837C15.9825 12.3298 16.5958 11.7165 17.3498 11.7165H17.353H32.6502C33.4042 11.7165 34.0175 12.3298 34.0175 13.0837C34.0175 13.8377 33.4042 14.451 32.6502 14.451H29.3948C28.8554 14.451 28.4182 14.8883 28.4182 15.4276C28.4182 15.967 28.8554 16.4043 29.3948 16.4043H32.1148L40.0085 28.7784C42.5072 32.6955 42.6655 37.4663 40.4319 41.5405Z" fill="#C5A376"/>
<path d="M26.7218 31.8944C26.4768 31.8078 26.2267 31.7177 25.9767 31.624V27.1978C26.6388 27.3926 27.081 27.7085 27.0998 27.7222C27.5294 28.044 28.1389 27.9586 28.4635 27.5302C28.7892 27.1003 28.7048 26.4878 28.2749 26.162C28.2175 26.1185 27.3095 25.4444 25.9767 25.1892V24.2173C25.9767 23.6779 25.5394 23.2407 25 23.2407C24.4607 23.2407 24.0234 23.6779 24.0234 24.2173V25.1822C23.858 25.2139 23.6903 25.2541 23.5204 25.3052C22.1459 25.7182 21.1185 26.8936 20.839 28.3728C20.584 29.7235 21.0168 31.0262 21.9684 31.7725C22.4848 32.1776 23.1301 32.5474 24.0234 32.9402V38.6042C23.2543 38.5556 22.7398 38.3806 21.8822 37.8195C21.4309 37.5241 20.8255 37.6507 20.5302 38.1021C20.2349 38.5535 20.3615 39.1587 20.8129 39.4541C22.0635 40.2722 22.9104 40.5039 24.0234 40.5587V41.5686C24.0234 42.108 24.4607 42.5453 25 42.5453C25.5394 42.5453 25.9767 42.108 25.9767 41.5686V40.4573C28.068 39.9992 29.2911 38.2541 29.5656 36.6216C29.9243 34.4873 28.8081 32.6318 26.7218 31.8944ZM23.1739 30.2355C22.7984 29.9411 22.6393 29.3662 22.7584 28.7352C22.868 28.1548 23.2584 27.4551 24.0234 27.1962V30.7729C23.7023 30.6017 23.4125 30.4228 23.1739 30.2355ZM27.6393 36.2976C27.4986 37.1341 26.934 38.0213 25.9766 38.4133V33.7022C26.0084 33.7135 26.0386 33.7245 26.0708 33.7359C27.8218 34.3548 27.7141 35.8532 27.6393 36.2976V36.2976Z" fill="#C5A376"/>
<path d="M25 16.4043C25.2569 16.4043 25.5089 16.2998 25.6905 16.1181C25.8722 15.9364 25.9767 15.6845 25.9767 15.4276C25.9767 15.1708 25.8722 14.9188 25.6905 14.7372C25.5089 14.5555 25.2569 14.451 25 14.451C24.7432 14.451 24.4912 14.5555 24.3096 14.7372C24.1279 14.9188 24.0234 15.1708 24.0234 15.4276C24.0234 15.6845 24.1279 15.9364 24.3096 16.1181C24.4912 16.2998 24.7431 16.4043 25 16.4043Z" fill="#C5A376"/>
</g>
<defs>
<clipPath id="clip0_1_78">
<rect width="50" height="50" fill="white"/>
</clipPath>
</defs>
</svg>
