<svg width="450" height="102" viewBox="0 0 450 102" fill="none" xmlns="http://www.w3.org/2000/svg">
<path d="M138.7 37.4H144.85V33.6C156.45 33.45 163 27.45 163 19.3V19.25C163 10.95 156.3 5.2 144.85 4.95V1.4H138.7V4.95C127.15 5.2 120.6 11.1 120.6 19.25V19.3C120.6 27.55 127.2 33.45 138.7 33.6V37.4ZM156.6 19.3C156.6 24.45 152.6 28.2 144.75 28.2V10.35C152.75 10.35 156.6 14.3 156.6 19.25V19.3ZM127 19.3C127 14.1 130.8 10.5 138.8 10.35V28.2C130.8 28.15 127 24.4 127 19.35V19.3Z" fill="white"/>
<path d="M169.308 36.9H174.808L187.658 19.6V36.9H193.708V10.5H187.958L175.358 27.4V10.5H169.308V36.9Z" fill="white"/>
<path d="M201.193 36.9H207.293V26.4H219.493V36.9H225.543V10.5H219.493V20.85H207.293V10.5H201.193V36.9Z" fill="white"/>
<path d="M240.679 37.45C244.729 37.45 247.479 35.75 249.279 33.6V36.9H255.179V21.25C255.179 17.8 254.279 15.05 252.329 13.1C250.429 11.15 247.529 10.15 243.579 10.15C239.379 10.15 236.529 11.05 233.579 12.3L235.229 17.05C237.629 16.05 239.779 15.4 242.779 15.4C247.029 15.4 249.329 17.35 249.329 21.15V21.8C247.279 21.15 245.229 20.7 242.229 20.7C235.779 20.7 231.279 23.45 231.279 29.2V29.3C231.279 34.65 235.729 37.45 240.679 37.45ZM242.379 33.05C239.429 33.05 237.229 31.6 237.229 29.05V28.95C237.229 26.15 239.479 24.55 243.429 24.55C245.829 24.55 247.879 25 249.429 25.6V27.4C249.429 30.8 246.379 33.05 242.379 33.05Z" fill="white"/>
<path d="M262.375 36.9H268.475V26.4H280.675V36.9H286.725V10.5H280.675V20.85H268.475V10.5H262.375V36.9Z" fill="white"/>
<path d="M306.461 37.5C311.611 37.5 314.661 35.5 317.261 32.55L313.611 28.95C311.661 30.9 309.611 32.2 306.761 32.2C302.111 32.2 298.861 28.45 298.861 23.75V23.65C298.861 19.05 302.111 15.25 306.511 15.25C309.511 15.25 311.461 16.6 313.311 18.55L317.111 14.5C314.561 11.8 311.511 9.95 306.561 9.95C298.611 9.95 292.811 16.25 292.811 23.75V23.85C292.811 31.35 298.611 37.5 306.461 37.5Z" fill="white"/>
<path d="M334.643 37.5C342.793 37.5 348.793 31.2 348.793 23.75V23.65C348.793 16.1 342.893 9.95 334.743 9.95C326.643 9.95 320.643 16.2 320.643 23.75V23.85C320.643 31.35 326.593 37.5 334.643 37.5ZM334.743 32.2C330.093 32.2 326.693 28.35 326.693 23.75V23.65C326.693 19.05 329.793 15.25 334.643 15.25C339.393 15.25 342.743 19.1 342.743 23.75V23.85C342.743 28.4 339.693 32.2 334.743 32.2Z" fill="white"/>
<path d="M354.904 36.9H368.404C374.404 36.9 378.604 34.45 378.604 29.55V29.5C378.604 25.95 376.554 24.2 373.354 23.2C375.804 22.2 377.504 20.5 377.504 17.35V17.3C377.504 12.95 373.954 10.5 368.354 10.5H354.904V36.9ZM360.854 21.45V14.9H367.304C370.104 14.85 371.554 16.25 371.554 18.05V18.1C371.554 20.1 370.154 21.45 367.154 21.45H360.854ZM360.854 25.7H367.804C371.054 25.65 372.704 27.05 372.704 29.1V29.15C372.704 31.3 371.054 32.5 368.054 32.5H360.854V25.7Z" fill="white"/>
<path d="M390.739 10.5H384.689V36.9H396.439C403.489 36.9 407.389 33.3 407.389 27.7V27.65C407.389 21.9 403.339 18.65 396.889 18.65H390.739V10.5ZM390.689 23.55H396.389C399.739 23.55 401.389 25.25 401.389 27.7V27.75C401.389 30.5 399.689 31.9 396.339 31.9H390.689V23.55ZM411.589 36.9H417.639V10.5H411.589V36.9Z" fill="white"/>
<path d="M425.168 36.9H430.668L443.518 19.6V36.9H449.568V10.5H443.818L431.218 27.4V10.5H425.168V36.9ZM437.318 7.25C442.118 7.25 445.518 4.6 445.918 0H441.718C441.118 1.8 439.868 3.05 437.318 3.05C434.768 3.05 433.518 1.8 432.918 0H428.718C429.118 4.6 432.518 7.25 437.318 7.25Z" fill="white"/>
<path d="M126.25 78.2V83.1L138.3 83.05C137.7 86.85 134.8 89.45 130.8 89.45C127.6 89.45 125.35 88.4 123 86.25L119.8 90.35C122.8 92.95 126.1 94.5 130.9 94.5C138.85 94.5 144.4 88.45 144.4 80.75V80.7C144.4 72.75 138.9 66.95 131.05 66.95C126.1 66.95 122.8 68.7 120 71.15L123.1 75.1C125.3 73.25 127.4 72.05 130.75 72.05C134.75 72.05 137.6 74.6 138.25 78.25L126.25 78.2Z" fill="white"/>
<path d="M156.561 67.5H150.461V93.9H156.561V83.2H159.661L168.461 93.9H175.761L164.311 80.4L175.411 67.5H167.961L159.561 77.95H156.561V67.5Z" fill="white"/>
<path d="M191.031 94.5C196.181 94.5 199.231 92.5 201.831 89.55L198.181 85.95C196.231 87.9 194.181 89.2 191.331 89.2C186.681 89.2 183.431 85.45 183.431 80.75V80.65C183.431 76.05 186.681 72.25 191.081 72.25C194.081 72.25 196.031 73.6 197.881 75.55L201.681 71.5C199.131 68.8 196.081 66.95 191.131 66.95C183.181 66.95 177.381 73.25 177.381 80.75V80.85C177.381 88.35 183.181 94.5 191.031 94.5Z" fill="white"/>
<path d="M207.346 93.9H213.446V72.95H225.596V93.9H231.646V67.5H207.346V93.9Z" fill="white"/>
<path d="M251.331 94.5C256.181 94.5 259.581 92.55 262.131 89.55L258.581 86.4C256.431 88.45 254.431 89.55 251.431 89.55C247.481 89.55 244.481 87.2 243.831 82.85H263.231C263.281 82.25 263.331 81.7 263.331 81.15C263.331 73.55 259.081 66.95 250.681 66.95C243.131 66.95 237.781 73.1 237.781 80.7V80.8C237.781 88.95 243.731 94.5 251.331 94.5ZM243.781 78.85C244.331 74.7 246.881 71.9 250.631 71.9C254.631 71.9 256.931 75 257.331 78.85H243.781Z" fill="white"/>
<path d="M269.357 101.9H275.457V89.8C277.307 92.25 280.057 94.45 284.457 94.45C290.707 94.45 296.707 89.55 296.707 80.75V80.65C296.707 71.85 290.657 66.95 284.457 66.95C280.107 66.95 277.407 69.15 275.457 71.9V67.5H269.357V101.9ZM283.007 89.2C278.857 89.2 275.307 85.8 275.307 80.75V80.65C275.307 75.6 278.857 72.2 283.007 72.2C287.057 72.2 290.557 75.55 290.557 80.65V80.75C290.557 85.95 287.157 89.2 283.007 89.2Z" fill="white"/>
<path d="M308.884 93.9H314.934V72.9H324.334V67.5H299.484V72.9H308.884V93.9Z" fill="white"/>
<path d="M48.0044 0.90007H42.0044V94.9001H48.0044V0.90007Z" fill="white"/>
<path d="M90.031 24.7143C90.0315 27.4255 89.5425 30.1146 88.5874 32.6523C87.4726 35.6136 85.762 38.3152 83.5613 40.5904C82.9399 41.2543 82.2763 41.8774 81.5747 42.4559C79.0812 44.5722 76.2003 46.1852 73.0919 47.2055C67.8913 48.9273 62.288 49.0196 57.0334 47.4701H57.0003V40.4383C58.679 41.4148 60.5067 42.1098 62.4105 42.4956C62.3664 42.6146 62.3134 42.7337 62.2516 42.8528H65.9996C70.7732 42.8528 75.3512 40.9585 78.7266 37.5866C82.102 34.2148 83.9983 29.6416 83.9983 24.873C83.9983 20.1045 82.102 15.5313 78.7266 12.1594C75.3512 8.7876 70.7732 6.8933 65.9996 6.8933H48.001V0.900061H64.6421C67.5134 0.895299 70.3666 1.3532 73.0919 2.25614C76.1904 3.2714 79.0622 4.87769 81.5482 6.98592C82.2514 7.56031 82.9151 8.18132 83.5348 8.84475C85.737 11.1188 87.4478 13.8207 88.5609 16.7828C89.5254 19.3165 90.0234 22.0036 90.031 24.7143Z" fill="white"/>
<path d="M65.9995 42.8528H62.2515C62.3089 42.7338 62.3618 42.6147 62.4104 42.4956C63.5916 42.7359 64.7941 42.8556 65.9995 42.8528Z" fill="white"/>
<path d="M51.0005 0.900024V6.89327H24.0025C21.2377 6.88799 18.5089 7.51881 16.0275 8.73681C13.5461 9.95482 11.3789 11.7273 9.69375 13.9169C8.00862 16.1064 6.8509 18.6542 6.31031 21.3627C5.76972 24.0713 5.8608 26.8678 6.57649 29.5355C7.29217 32.2032 8.61324 34.6705 10.4373 36.746C12.2613 38.8215 14.5393 40.4495 17.0947 41.5038C19.6501 42.5581 22.4142 43.0104 25.1728 42.8256C27.9313 42.6408 30.6102 41.8239 33.0018 40.4382V47.47H32.9687C27.7141 49.0196 22.1109 48.9273 16.9103 47.2054C13.8132 46.19 10.9418 44.5862 8.45396 42.4823C7.75228 41.9038 7.0887 41.2807 6.46735 40.6168C4.26664 38.3417 2.55608 35.64 1.44123 32.6788C-0.480412 27.5608 -0.480412 21.9206 1.44123 16.8026C2.55439 13.8405 4.26516 11.1386 6.46735 8.86456C7.08706 8.20113 7.75076 7.58012 8.45396 7.00573C10.9399 4.8975 13.8117 3.2912 16.9103 2.27595C19.6344 1.36627 22.4877 0.901662 25.36 0.900024H51.0005Z" fill="white"/>
<path d="M79.0044 58.9001L79.0044 53.9001L57.0044 53.9001L57.0044 58.9001L79.0044 58.9001Z" fill="white"/>
<path d="M33.0044 58.9001L33.0044 53.9001L11.0044 53.9001L11.0044 58.9001L33.0044 58.9001Z" fill="white"/>
<path d="M63.0044 94.9L63.0044 89.9L29.0044 89.9L29.0044 94.9L63.0044 94.9Z" fill="white"/>
</svg>
