<svg width="200" height="208" viewBox="0 0 200 208" fill="none" xmlns="http://www.w3.org/2000/svg">
<path d="M106.222 0.000106812H92.9458V208H106.222V0.000106812Z" fill="white"/>
<path d="M199.217 52.6953C199.219 58.6946 198.137 64.6449 196.023 70.2604C193.556 76.813 189.771 82.7911 184.901 87.8255C183.527 89.2945 182.058 90.6733 180.506 91.9533C174.988 96.6363 168.613 100.205 161.735 102.463C150.227 106.273 137.829 106.477 126.202 103.049H126.128V87.4888C129.843 89.6496 133.887 91.1875 138.1 92.0411C138.002 92.3046 137.885 92.5681 137.748 92.8316H146.042C156.604 92.8316 166.735 88.64 174.204 81.1788C181.673 73.7177 185.869 63.5982 185.869 53.0466C185.869 42.495 181.673 32.3756 174.204 24.9145C166.735 17.4533 156.604 13.2617 146.042 13.2617H106.215V8.13439e-05H143.038C149.391 -0.0104557 155.705 1.00277 161.735 3.00077C168.591 5.24729 174.946 8.80165 180.447 13.4667C182.003 14.7376 183.472 16.1118 184.843 17.5798C189.716 22.6117 193.501 28.5904 195.964 35.1449C198.099 40.7514 199.201 46.6972 199.217 52.6953Z" fill="white"/>
<path d="M146.042 92.8316H137.748C137.875 92.5682 137.992 92.3047 138.1 92.0412C140.713 92.5728 143.374 92.8377 146.042 92.8316Z" fill="white"/>
<path d="M112.852 6.10352e-05V13.2617H53.1119C46.9941 13.25 40.9558 14.6459 35.4651 17.341C29.9744 20.0362 25.1788 23.9583 21.45 28.8033C17.7212 33.6482 15.1594 39.2859 13.9632 45.2792C12.767 51.2726 12.9686 57.4607 14.5522 63.3637C16.1359 69.2667 19.0591 74.7261 23.0952 79.3187C27.1314 83.9113 32.1721 87.5137 37.8265 89.8467C43.481 92.1796 49.5974 93.1805 55.7014 92.7716C61.8055 92.3627 67.7333 90.555 73.0253 87.4888V103.049H72.952C61.3248 106.477 48.9261 106.273 37.4185 102.463C30.5654 100.216 24.2116 96.6673 18.7066 92.0118C17.154 90.7318 15.6856 89.353 14.3107 87.884C9.44108 82.8496 5.656 76.8716 3.18911 70.319C-1.06304 58.9941 -1.06304 46.5136 3.18911 35.1888C5.65226 28.6343 9.43779 22.6556 14.3107 17.6237C15.682 16.1557 17.1506 14.7815 18.7066 13.5106C24.2074 8.84554 30.5621 5.29118 37.4185 3.04466C43.4464 1.03175 49.7599 0.0036841 56.1157 6.10352e-05H112.852Z" fill="white"/>
<path d="M174.818 128.34L174.818 117.277L126.138 117.277L126.138 128.34L174.818 128.34Z" fill="white"/>
<path d="M73.0308 128.34L73.0308 117.277L24.3499 117.277L24.3499 128.34L73.0308 128.34Z" fill="white"/>
<path d="M139 208L139 197L64 197L64 208L139 208Z" fill="white"/>
</svg>
