<svg width="30" height="30" viewBox="0 0 30 30" fill="none" xmlns="http://www.w3.org/2000/svg">
<g clip-path="url(#clip0_1_135)">
<path d="M10 0C4.48611 0 0 4.48611 0 10C0 11.6553 0.413847 13.2965 1.20059 14.7522L9.45316 29.6777C9.56303 29.8767 9.77238 30 10 30C10.2277 30 10.437 29.8767 10.5469 29.6777L18.8025 14.7473C19.5862 13.2965 20 11.6552 20 9.99996C20 4.48611 15.5139 0 10 0ZM10 15C7.24306 15 5.00004 12.757 5.00004 10C5.00004 7.24307 7.24306 5.00004 10 5.00004C12.757 5.00004 15 7.24307 15 10C15 12.757 12.757 15 10 15Z" fill="#212133"/>
</g>
<defs>
<clipPath id="clip0_1_135">
<rect width="30" height="30" fill="white"/>
</clipPath>
</defs>
</svg>
