<svg width="30" height="30" viewBox="0 0 30 30" fill="none" xmlns="http://www.w3.org/2000/svg">
<g clip-path="url(#clip0_1_162)">
<path fill-rule="evenodd" clip-rule="evenodd" d="M24.6663 13.7743C25.0226 13.2906 25.3038 12.9031 25.5126 12.6106C27.0138 10.5106 27.6638 9.16931 27.4651 8.58431L27.3863 8.44681C27.3351 8.36556 27.2001 8.2893 26.9838 8.2218C26.7663 8.15305 26.4888 8.1418 26.1501 8.1868L22.4013 8.2143C22.3151 8.20555 22.2276 8.20805 22.1413 8.2218C22.0538 8.23555 21.9976 8.2493 21.9713 8.2618C21.9463 8.2768 21.9251 8.28805 21.9063 8.2968L21.8551 8.33806C21.8113 8.36431 21.7638 8.41306 21.7126 8.48181C21.6588 8.54931 21.6163 8.62931 21.5813 8.72181C21.1738 9.82556 20.7088 10.8531 20.1888 11.8018C19.8676 12.3681 19.5726 12.8593 19.3038 13.2743C19.0351 13.6906 18.8088 13.9956 18.6263 14.1918C18.4451 14.3881 18.2801 14.5456 18.1326 14.6643C17.9838 14.7831 17.8713 14.8331 17.7938 14.8156C17.7163 14.7968 17.6413 14.7793 17.5726 14.7593C17.4513 14.6781 17.3538 14.5668 17.2801 14.4243C17.2051 14.2843 17.1563 14.1056 17.1301 13.8906C17.1038 13.6768 17.0888 13.4906 17.0838 13.3356C17.0801 13.1806 17.0826 12.9618 17.0913 12.6781C17.1001 12.3956 17.1038 12.2043 17.1038 12.1031C17.1038 11.7568 17.1101 11.3793 17.1238 10.9731C17.1363 10.5681 17.1476 10.2456 17.1563 10.0081C17.1651 9.77181 17.1688 9.51931 17.1688 9.25556C17.1688 8.99056 17.1538 8.78306 17.1238 8.63181C17.0926 8.48181 17.0476 8.33556 16.9863 8.1943C16.9251 8.05305 16.8363 7.94305 16.7201 7.86555C16.6026 7.78805 16.4563 7.72555 16.2838 7.68055C15.8238 7.57055 15.2375 7.5118 14.5263 7.5018C12.9125 7.4843 11.875 7.5943 11.4163 7.83055C11.2338 7.9318 11.0688 8.0693 10.9213 8.2418C10.765 8.44306 10.7425 8.55306 10.855 8.57056C11.3775 8.65306 11.745 8.84931 11.9625 9.15931L12.04 9.32306C12.1013 9.44306 12.1613 9.65306 12.2225 9.95431C12.2825 10.2543 12.3225 10.5881 12.34 10.9531C12.3838 11.6206 12.3838 12.1906 12.34 12.6656C12.2963 13.1393 12.2563 13.5093 12.2163 13.7743C12.1763 14.0381 12.1188 14.2531 12.0413 14.4168C11.9625 14.5831 11.91 14.6831 11.8838 14.7193C11.8575 14.7556 11.8363 14.7781 11.8188 14.7881C11.7063 14.8331 11.5888 14.8556 11.4675 14.8556C11.3463 14.8556 11.1988 14.7918 11.025 14.6631C10.8513 14.5368 10.6713 14.3606 10.485 14.1368C10.2988 13.9131 10.0875 13.6006 9.85378 13.1981C9.62003 12.7968 9.37628 12.3218 9.12503 11.7743L8.91628 11.3768C8.78752 11.1218 8.60877 10.7506 8.38377 10.2618C8.15752 9.77306 7.95752 9.30056 7.78502 8.84431C7.71502 8.65306 7.61002 8.50681 7.47252 8.40556L7.40627 8.36431C7.36377 8.32806 7.29377 8.2893 7.19877 8.2493C7.10377 8.2068 7.00377 8.17805 6.89877 8.1593L3.3325 8.1868C2.9675 8.1868 2.72125 8.2743 2.59 8.44681L2.53875 8.52931C2.5125 8.57556 2.5 8.64806 2.5 8.74806C2.5 8.84931 2.52625 8.97181 2.57875 9.11806C3.09875 10.4056 3.665 11.6468 4.27626 12.8431C4.88876 14.0381 5.42001 15.0018 5.87126 15.7318C6.32252 16.4631 6.78127 17.1518 7.25127 17.8006C7.72002 18.4493 8.03002 18.8631 8.18127 19.0456C8.33377 19.2293 8.45252 19.3656 8.53877 19.4568L8.86503 19.7868C9.07253 20.0056 9.37878 20.2681 9.78253 20.5731C10.185 20.8794 10.6325 21.1806 11.1238 21.4769C11.6125 21.7744 12.1838 22.0156 12.835 22.2031C13.485 22.3906 14.1188 22.4656 14.735 22.4294H16.2313C16.5363 22.4019 16.7663 22.3019 16.9213 22.1281L16.9738 22.0594C17.0088 22.0056 17.0413 21.9206 17.0713 21.8069C17.1013 21.6919 17.1176 21.5669 17.1176 21.4306C17.1088 21.0381 17.1363 20.6831 17.2013 20.3681C17.2676 20.0531 17.3401 19.8169 17.4226 19.6556C17.5051 19.4968 17.5988 19.3618 17.7038 19.2518C17.8076 19.1418 17.8801 19.0768 17.9251 19.0543C17.9676 19.0318 18.0026 19.0156 18.0288 19.0056C18.2363 18.9331 18.4813 19.0031 18.7638 19.2181C19.0463 19.4331 19.3113 19.6968 19.5576 20.0119C19.8051 20.3281 20.1026 20.6806 20.4501 21.0731C20.7963 21.4669 21.1001 21.7581 21.3601 21.9506L21.6213 22.1144C21.7938 22.2244 22.0201 22.3244 22.2988 22.4156C22.5751 22.5069 22.8188 22.5306 23.0276 22.4844L26.3601 22.4294C26.6888 22.4294 26.9451 22.3719 27.1276 22.2581C27.3088 22.1444 27.4176 22.0181 27.4526 21.8819C27.4876 21.7444 27.4888 21.5906 27.4588 21.4156C27.4288 21.2431 27.3976 21.1219 27.3688 21.0544C27.3376 20.9856 27.3088 20.9281 27.2826 20.8819C26.8501 20.0619 26.0201 19.0518 24.7963 17.8568L24.7701 17.8293L24.7576 17.8143L24.7451 17.8018H24.7313C24.1763 17.2443 23.8251 16.8706 23.6776 16.6781C23.4088 16.3143 23.3476 15.9431 23.4963 15.5693C23.5988 15.2856 23.9888 14.6868 24.6663 13.7743Z" fill="#212133"/>
</g>
<defs>
<clipPath id="clip0_1_162">
<rect width="30" height="30" fill="white"/>
</clipPath>
</defs>
</svg>
